<svg width="21" height="22" viewBox="0 0 21 22" fill="none" xmlns="http://www.w3.org/2000/svg">
<path d="M20.25 14.7859V16.3125C20.25 17.2283 19.8214 18.0112 19.2262 18.6266C18.6379 19.2364 17.8391 19.7336 16.9403 20.1274C15.138 20.9149 12.7282 21.375 10.125 21.375C7.52175 21.375 5.112 20.916 3.30975 20.1274C2.41087 19.7336 1.61213 19.2364 1.02375 18.6266C0.478125 18.0641 0.0731249 17.3576 0.00899988 16.5386L0 16.3125V14.7859C0.52275 15.0844 1.083 15.345 1.68075 15.5677C3.9645 16.4126 6.95138 16.884 10.125 16.884C13.2986 16.884 16.2855 16.4126 18.5693 15.5677C19.0177 15.4012 19.4449 15.2126 19.8506 15.0019L20.25 14.7859ZM0 8.59837C0.52275 8.89687 1.083 9.1575 1.68075 9.38025C3.9645 10.2251 6.95138 10.6965 10.125 10.6965C13.2986 10.6965 16.2855 10.2251 18.5693 9.38025C19.1501 9.16631 19.7122 8.90479 20.25 8.59837V12.0915C19.5032 12.6685 18.6733 13.129 17.7885 13.4572C15.8141 14.1885 13.104 14.6351 10.125 14.6351C7.14712 14.6351 4.437 14.1885 2.4615 13.4572C1.5767 13.129 0.746768 12.6685 0 12.0915V8.59837ZM10.125 0C12.7282 0 15.138 0.459 16.9403 1.24763C17.8391 1.64138 18.6379 2.13862 19.2262 2.74837C19.7719 3.31087 20.1769 4.01737 20.241 4.83637L20.25 5.0625V5.904C19.5032 6.48102 18.6733 6.94151 17.7885 7.26975C15.8141 8.001 13.104 8.44763 10.125 8.44763C7.14712 8.44763 4.437 8.001 2.4615 7.26975C1.70099 6.98721 0.98055 6.60675 0.318375 6.138L0 5.904V5.0625C0 4.14675 0.428625 3.36375 1.02375 2.74837C1.61213 2.13862 2.41087 1.64138 3.30975 1.24763C5.112 0.460125 7.52175 0 10.125 0Z" fill="#4C47FC"/>
</svg>
