<svg width="45" height="36" viewBox="0 0 45 36" fill="none" xmlns="http://www.w3.org/2000/svg">
<path d="M44.2308 7.81787V28.7501C44.2309 30.4424 43.5843 32.0707 42.4233 33.302C41.2624 34.5333 39.6748 35.2744 37.9854 35.3736L37.5962 35.3847H6.63462C4.94232 35.3848 3.31396 34.7382 2.08269 33.5772C0.851427 32.4163 0.110339 30.8287 0.0110579 29.1393L0 28.7501V7.81787L20.888 21.7439L21.1445 21.8899C21.4468 22.0376 21.7789 22.1144 22.1154 22.1144C22.4519 22.1144 22.7839 22.0376 23.0863 21.8899L23.3428 21.7439L44.2308 7.81787Z" fill="#4C47FC"/>
<path d="M37.5964 0C39.9849 0 42.0792 1.26058 43.2469 3.15587L22.1156 17.2434L0.984375 3.15587C1.53901 2.25538 2.30088 1.50053 3.20647 0.954255C4.11205 0.407981 5.13511 0.0861112 6.19034 0.0154807L6.63486 0H37.5964Z" fill="#4C47FC"/>
</svg>
