<svg width="51" height="58" viewBox="0 0 51 58" fill="none" xmlns="http://www.w3.org/2000/svg">
<path d="M7.73438 38.6659V27.0659H9.66771C10.1805 27.0659 10.6722 27.2696 11.0348 27.6322C11.3974 27.9947 11.601 28.4865 11.601 28.9993V36.7326C11.601 37.2453 11.3974 37.7371 11.0348 38.0997C10.6722 38.4622 10.1805 38.6659 9.66771 38.6659H7.73438ZM23.201 28.9993C23.201 28.4865 23.4047 27.9947 23.7673 27.6322C24.1299 27.2696 24.6216 27.0659 25.1344 27.0659C25.6471 27.0659 26.1389 27.2696 26.5014 27.6322C26.864 27.9947 27.0677 28.4865 27.0677 28.9993V36.7326C27.0677 37.2453 26.864 37.7371 26.5014 38.0997C26.1389 38.4622 25.6471 38.6659 25.1344 38.6659C24.6216 38.6659 24.1299 38.4622 23.7673 38.0997C23.4047 37.7371 23.201 37.2453 23.201 36.7326V28.9993Z" fill="white"/>
<path fill-rule="evenodd" clip-rule="evenodd" d="M0 5.8C0 4.26174 0.61107 2.78649 1.69878 1.69878C2.78649 0.61107 4.26174 0 5.8 0L37.5337 0L50.2667 12.7329V52.2C50.2667 53.7383 49.6556 55.2135 48.5679 56.3012C47.4802 57.3889 46.0049 58 44.4667 58H5.8C4.26174 58 2.78649 57.3889 1.69878 56.3012C0.61107 55.2135 0 53.7383 0 52.2V5.8ZM9.66667 23.2H3.86667V42.5333H9.66667C11.2049 42.5333 12.6802 41.9223 13.7679 40.8346C14.8556 39.7468 15.4667 38.2716 15.4667 36.7333V29C15.4667 27.4617 14.8556 25.9865 13.7679 24.8988C12.6802 23.8111 11.2049 23.2 9.66667 23.2ZM25.1333 23.2C23.5951 23.2 22.1198 23.8111 21.0321 24.8988C19.9444 25.9865 19.3333 27.4617 19.3333 29V36.7333C19.3333 38.2716 19.9444 39.7468 21.0321 40.8346C22.1198 41.9223 23.5951 42.5333 25.1333 42.5333C26.6716 42.5333 28.1468 41.9223 29.2346 40.8346C30.3223 39.7468 30.9333 38.2716 30.9333 36.7333V29C30.9333 27.4617 30.3223 25.9865 29.2346 24.8988C28.1468 23.8111 26.6716 23.2 25.1333 23.2ZM34.8 42.5333V23.2H46.4V30.9333H42.5333V27.0667H38.6667V38.6667H42.5333V34.8H46.4V42.5333H34.8Z" fill="white"/>
</svg>
