<svg width="17" height="17" viewBox="0 0 17 17" fill="none" xmlns="http://www.w3.org/2000/svg">
<path d="M15.8871 7.97485H12.1262C11.9027 7.97463 11.685 8.04537 11.5043 8.17688C11.3236 8.3084 11.1894 8.49389 11.121 8.70661C10.9414 9.26778 10.588 9.75727 10.1118 10.1042C9.63558 10.4512 9.06134 10.6376 8.47215 10.6366C7.88296 10.6376 7.30871 10.4512 6.83252 10.1042C6.35632 9.75727 6.00288 9.26778 5.82334 8.70661C5.75458 8.494 5.6202 8.30864 5.43951 8.17717C5.25882 8.04569 5.04112 7.97487 4.81766 7.97485H1.05682C0.776549 7.97491 0.507776 8.08627 0.309597 8.28445C0.111418 8.48263 5.69592e-05 8.7514 0 9.03167V15.0589C0.000170844 15.3391 0.111582 15.6078 0.309749 15.8058C0.507916 16.0039 0.776623 16.1152 1.05682 16.1153H15.8871C16.1672 16.1152 16.436 16.0039 16.6341 15.8058C16.8323 15.6078 16.9437 15.3391 16.9439 15.0589V9.03167C16.9439 8.44751 16.4712 7.97485 15.8871 7.97485Z" fill="white"/>
<path d="M8.25036 8.53832C8.30342 8.61266 8.39022 8.65713 8.48153 8.65713H8.48217C8.57413 8.65713 8.65963 8.61266 8.71335 8.53725L11.6361 4.42664C11.6661 4.38401 11.6839 4.33396 11.6876 4.28192C11.6912 4.22988 11.6805 4.17785 11.6567 4.13145C11.6328 4.08501 11.5965 4.04607 11.5519 4.01892C11.5073 3.99178 11.4561 3.97749 11.4038 3.97762H10.029V0.284883C10.029 0.126973 9.90165 0 9.74481 0H7.19977C7.04251 0 6.91553 0.126973 6.91553 0.284883V3.97762H5.53967C5.48753 3.9777 5.43641 3.99212 5.39191 4.0193C5.34742 4.04649 5.31125 4.08539 5.28738 4.13175C5.26352 4.17811 5.25286 4.23015 5.25659 4.28216C5.26031 4.33417 5.27827 4.38415 5.3085 4.42664L8.25036 8.53832Z" fill="white"/>
</svg>
