<svg width="35" height="35" viewBox="0 0 35 35" fill="none" xmlns="http://www.w3.org/2000/svg">
<path d="M25.9364 0.0336199C27.0475 0.309731 28.1109 0.750583 29.0914 1.34152C29.288 1.4601 29.4444 1.63489 29.5405 1.8433C29.6366 2.05171 29.668 2.28416 29.6307 2.51061C29.501 3.30109 29.6972 3.90571 30.0666 4.27513C30.4361 4.64456 31.0418 4.84074 31.8312 4.7111C32.0576 4.67373 32.2901 4.70514 32.4985 4.80127C32.7069 4.89739 32.8817 5.05382 33.0002 5.25032C33.5912 6.23085 34.032 7.29431 34.3082 8.40536C34.3636 8.62832 34.3507 8.86277 34.2714 9.07837C34.192 9.29397 34.0497 9.48077 33.863 9.61459C33.2125 10.0815 32.9222 10.6471 32.9222 11.1703C32.9222 11.6935 33.2125 12.2602 33.863 12.7272C34.0495 12.8609 34.1917 13.0475 34.271 13.2629C34.3504 13.4783 34.3633 13.7125 34.3082 13.9353C34.032 15.0463 33.5912 16.1098 33.0002 17.0903C32.8817 17.2868 32.7069 17.4432 32.4985 17.5394C32.2901 17.6355 32.0576 17.6669 31.8312 17.6295C31.0407 17.4999 30.4361 17.6972 30.0666 18.0655C29.6972 18.4349 29.501 19.0407 29.6307 19.83C29.6683 20.0566 29.637 20.2893 29.5409 20.498C29.4447 20.7066 29.2882 20.8816 29.0914 21.0002C28.1109 21.5912 27.0475 22.032 25.9364 22.3081C25.7135 22.3636 25.479 22.3507 25.2634 22.2714C25.0478 22.192 24.861 22.0497 24.7272 21.863C24.2602 21.2113 23.6946 20.9222 23.1715 20.9222C22.6483 20.9222 22.0815 21.2113 21.6146 21.863C21.4809 22.0495 21.2942 22.1917 21.0789 22.271C20.8635 22.3504 20.6293 22.3633 20.4065 22.3081C19.2955 22.032 18.232 21.5912 17.2515 21.0002C17.0548 20.8816 16.8982 20.7066 16.8021 20.498C16.7059 20.2893 16.6746 20.0566 16.7122 19.83C16.8419 19.0407 16.6446 18.4361 16.2763 18.0666C15.9057 17.6972 15.3011 17.4999 14.5118 17.6307C14.2851 17.6683 14.0524 17.637 13.8438 17.5409C13.6352 17.4447 13.4602 17.2882 13.3415 17.0914C12.7504 16.1102 12.3095 15.046 12.0336 13.9341C11.9785 13.7113 11.9914 13.4771 12.0708 13.2617C12.1501 13.0464 12.2922 12.8598 12.4788 12.726C13.1304 12.2602 13.4195 11.6935 13.4195 11.1703C13.4195 10.6483 13.1304 10.0804 12.4788 9.61459C12.2922 9.48085 12.1501 9.29424 12.0708 9.07888C11.9914 8.86351 11.9785 8.6293 12.0336 8.4065C12.3096 7.29506 12.7505 6.23121 13.3415 5.25032C13.4602 5.05361 13.6352 4.89705 13.8438 4.80092C14.0524 4.70478 14.2851 4.67349 14.5118 4.7111C15.3011 4.84074 15.9057 4.64456 16.2751 4.27513C16.6446 3.90571 16.8419 3.29994 16.7111 2.51061C16.6737 2.28416 16.7051 2.05171 16.8013 1.8433C16.8974 1.63489 17.0538 1.4601 17.2503 1.34152C18.2312 0.750478 19.2951 0.309623 20.4065 0.0336199C20.6293 -0.0215358 20.8635 -0.00859983 21.0789 0.0707557C21.2942 0.150111 21.4809 0.292238 21.6146 0.478766C22.0815 1.12928 22.6483 1.41954 23.1715 1.41954C23.6946 1.41954 24.2614 1.12928 24.7272 0.478766C24.8609 0.292238 25.0475 0.150111 25.2629 0.0707557C25.4783 -0.00859983 25.7136 -0.0215358 25.9364 0.0336199ZM23.1715 5.43389C21.6501 5.43389 20.191 6.03826 19.1152 7.11405C18.0394 8.18983 17.435 9.64892 17.435 11.1703C17.435 12.6917 18.0394 14.1508 19.1152 15.2266C20.191 16.3024 21.6501 16.9067 23.1715 16.9067C24.6929 16.9067 26.1519 16.3024 27.2277 15.2266C28.3035 14.1508 28.9079 12.6917 28.9079 11.1703C28.9079 9.64892 28.3035 8.18983 27.2277 7.11405C26.1519 6.03826 24.6929 5.43389 23.1715 5.43389ZM23.1715 7.72846C24.0843 7.72846 24.9597 8.09108 25.6052 8.73655C26.2507 9.38202 26.6133 10.2575 26.6133 11.1703C26.6133 12.0831 26.2507 12.9586 25.6052 13.6041C24.9597 14.2495 24.0843 14.6122 23.1715 14.6122C22.2586 14.6122 21.3832 14.2495 20.7377 13.6041C20.0922 12.9586 19.7296 12.0831 19.7296 11.1703C19.7296 10.2575 20.0922 9.38202 20.7377 8.73655C21.3832 8.09108 22.2586 7.72846 23.1715 7.72846Z" fill="#C6C6C6"/>
<path d="M10.8175 17.0261C11.6799 17.2404 12.5054 17.5826 13.2665 18.0413C13.419 18.1333 13.5404 18.269 13.615 18.4308C13.6897 18.5926 13.714 18.773 13.685 18.9487C13.5844 19.5623 13.7367 20.0316 14.0234 20.3184C14.3102 20.6051 14.7804 20.7574 15.3931 20.6568C15.5688 20.6278 15.7493 20.6522 15.911 20.7268C16.0728 20.8014 16.2085 20.9228 16.3005 21.0753C16.7592 21.8364 17.1014 22.6619 17.3157 23.5243C17.3587 23.6974 17.3488 23.8793 17.2872 24.0467C17.2256 24.214 17.1152 24.359 16.9702 24.4629C16.4653 24.8254 16.24 25.2644 16.24 25.6705C16.24 26.0765 16.4653 26.5165 16.9702 26.8789C17.115 26.9827 17.2253 27.1276 17.2869 27.2947C17.3485 27.4619 17.3585 27.6437 17.3157 27.8166C17.1014 28.679 16.7592 29.5045 16.3005 30.2656C16.2085 30.4181 16.0728 30.5395 15.911 30.6142C15.7493 30.6888 15.5688 30.7132 15.3931 30.6841C14.7795 30.5835 14.3102 30.7367 14.0234 31.0225C13.7367 31.3093 13.5844 31.7795 13.685 32.3922C13.7142 32.5681 13.6899 32.7487 13.6153 32.9107C13.5407 33.0726 13.4192 33.2084 13.2665 33.3005C12.5054 33.7592 11.6799 34.1014 10.8175 34.3157C10.6445 34.3587 10.4625 34.3488 10.2951 34.2872C10.1278 34.2256 9.98279 34.1152 9.87891 33.9702C9.51647 33.4644 9.07744 33.24 8.67136 33.24C8.26528 33.24 7.82535 33.4644 7.46291 33.9702C7.3591 34.115 7.21425 34.2253 7.04708 34.2869C6.87991 34.3485 6.69811 34.3585 6.52518 34.3157C5.66278 34.1014 4.83732 33.7592 4.07622 33.3005C3.92354 33.2084 3.80202 33.0726 3.72739 32.9107C3.65277 32.7487 3.62848 32.5681 3.65768 32.3922C3.75831 31.7795 3.60513 31.3102 3.31927 31.0234C3.03163 30.7367 2.56232 30.5835 1.94964 30.685C1.77373 30.7142 1.59311 30.6899 1.43116 30.6153C1.26922 30.5407 1.1334 30.4192 1.0413 30.2665C0.582444 29.5048 0.240247 28.6788 0.0260961 27.8158C-0.0167162 27.6428 -0.00667538 27.461 0.0549209 27.2939C0.116517 27.1267 0.226837 26.9818 0.371622 26.878C0.877442 26.5165 1.10186 26.0765 1.10186 25.6705C1.10186 25.2653 0.877442 24.8245 0.371622 24.4629C0.226837 24.3591 0.116517 24.2142 0.0549209 24.0471C-0.00667538 23.8799 -0.0167162 23.6981 0.0260961 23.5252C0.240331 22.6625 0.582526 21.8367 1.0413 21.0753C1.1334 20.9226 1.26922 20.8011 1.43116 20.7265C1.59311 20.6519 1.77373 20.6276 1.94964 20.6568C2.56232 20.7574 3.03163 20.6051 3.31838 20.3184C3.60513 20.0316 3.75831 19.5614 3.65678 18.9487C3.62778 18.773 3.65216 18.5926 3.72678 18.4308C3.80139 18.269 3.92281 18.1333 4.07533 18.0413C4.83671 17.5825 5.66247 17.2403 6.52518 17.0261C6.69811 16.9833 6.87991 16.9933 7.04708 17.0549C7.21425 17.1165 7.3591 17.2268 7.46291 17.3716C7.82535 17.8766 8.26528 18.1019 8.67136 18.1019C9.07744 18.1019 9.51736 17.8766 9.87891 17.3716C9.98273 17.2268 10.1276 17.1165 10.2947 17.0549C10.4619 16.9933 10.6446 16.9833 10.8175 17.0261ZM8.67136 21.2178C7.49044 21.2178 6.35789 21.6869 5.52286 22.522C4.68783 23.357 4.21871 24.4896 4.21871 25.6705C4.21871 26.8514 4.68783 27.9839 5.52286 28.819C6.35789 29.654 7.49044 30.1231 8.67136 30.1231C9.85227 30.1231 10.9848 29.654 11.8199 28.819C12.6549 27.9839 13.124 26.8514 13.124 25.6705C13.124 24.4896 12.6549 23.357 11.8199 22.522C10.9848 21.6869 9.85227 21.2178 8.67136 21.2178ZM8.67136 22.9989C9.37991 22.9989 10.0594 23.2803 10.5605 23.7814C11.0615 24.2824 11.3429 24.9619 11.3429 25.6705C11.3429 26.379 11.0615 27.0585 10.5605 27.5596C10.0594 28.0606 9.37991 28.3421 8.67136 28.3421C7.96281 28.3421 7.28328 28.0606 6.78226 27.5596C6.28124 27.0585 5.99977 26.379 5.99977 25.6705C5.99977 24.9619 6.28124 24.2824 6.78226 23.7814C7.28328 23.2803 7.96281 22.9989 8.67136 22.9989Z" fill="#C6C6C6"/>
<circle cx="23.5" cy="11.5" r="4.5" fill="#EFEEF3"/>
<circle cx="8.5" cy="25.5" r="3.5" fill="#EFEEF3"/>
</svg>
