<svg width="35" height="35" viewBox="0 0 35 35" fill="none" xmlns="http://www.w3.org/2000/svg">
<path d="M7.03889 15.1472C9.83889 20.65 14.35 25.1611 19.8528 27.9611L24.1306 23.6833C24.675 23.1389 25.4333 22.9833 26.1139 23.1972C28.2917 23.9167 30.625 24.3056 33.0556 24.3056C33.5713 24.3056 34.0658 24.5104 34.4305 24.8751C34.7951 25.2397 35 25.7343 35 26.25V33.0556C35 33.5713 34.7951 34.0658 34.4305 34.4305C34.0658 34.7951 33.5713 35 33.0556 35C24.2887 35 15.8809 31.5174 9.68175 25.3183C3.48263 19.1191 0 10.7113 0 1.94444C0 1.42875 0.20486 0.934169 0.569515 0.569515C0.934169 0.20486 1.42875 0 1.94444 0H8.75C9.2657 0 9.76027 0.20486 10.1249 0.569515C10.4896 0.934169 10.6944 1.42875 10.6944 1.94444C10.6944 4.375 11.0833 6.70833 11.8028 8.88611C12.0167 9.56667 11.8611 10.325 11.3167 10.8694L7.03889 15.1472Z" fill="#4B46FC"/>
</svg>
