<svg width="34" height="34" viewBox="0 0 34 34" fill="none" xmlns="http://www.w3.org/2000/svg">
<path d="M0 17V26.4444C0 28.5222 0.739815 30.3009 2.21944 31.7806C3.69907 33.2602 5.47778 34 7.55556 34H26.4444C28.5222 34 30.3009 33.2602 31.7806 31.7806C33.2602 30.3009 34 28.5222 34 26.4444V17H26.4444V20.7778C26.4444 21.8167 26.0749 22.7063 25.3357 23.4468C24.5965 24.1872 23.7068 24.5568 22.6667 24.5556H11.3333C10.2944 24.5556 9.40541 24.186 8.66622 23.4468C7.92704 22.7076 7.55681 21.8179 7.55556 20.7778V17H0ZM11.3333 17V20.7778H22.6667V17H11.3333ZM0 13.2222H34V7.55556C34 5.47778 33.2602 3.69907 31.7806 2.21944C30.3009 0.739815 28.5222 0 26.4444 0H7.55556C5.47778 0 3.69907 0.739815 2.21944 2.21944C0.739815 3.69907 0 5.47778 0 7.55556V13.2222Z" fill="#C6C6C6"/>
</svg>
