<svg width="19" height="26" viewBox="0 0 19 26" fill="none" xmlns="http://www.w3.org/2000/svg">
<path d="M16.8929 10.4429H15.05V5.83571C15.05 2.61071 12.4393 0 9.21429 0C5.98929 0 3.37857 2.61071 3.37857 5.83571V10.4429H1.53571C0.614286 10.4429 0 11.0571 0 11.9786V24.2643C0 25.1857 0.614286 25.8 1.53571 25.8H16.8929C17.8143 25.8 18.4286 25.1857 18.4286 24.2643V11.9786C18.4286 11.0571 17.8143 10.4429 16.8929 10.4429ZM12.5929 10.4429H5.83571V5.83571C5.83571 3.99286 7.37143 2.45714 9.21429 2.45714C11.0571 2.45714 12.5929 3.99286 12.5929 5.83571V10.4429Z" fill="#4C47FC"/>
</svg>
