<svg width="22" height="26" viewBox="0 0 22 26" fill="none" xmlns="http://www.w3.org/2000/svg">
<path d="M0 3.25C0 2.38805 0.289731 1.5614 0.805456 0.951903C1.32118 0.34241 2.02065 0 2.75 0H19.25C19.9793 0 20.6788 0.34241 21.1945 0.951903C21.7103 1.5614 22 2.38805 22 3.25V4.11883C21.1637 3.54904 20.2153 3.24939 19.25 3.25H2.75C1.749 3.25 0.8085 3.56633 0 4.11883V3.25ZM2.75 6.5C2.02065 6.5 1.32118 6.84241 0.805456 7.4519C0.289731 8.0614 0 8.88805 0 9.75V10.6188C0.83627 10.049 1.7847 9.74939 2.75 9.75H19.25C20.251 9.75 21.1915 10.0663 22 10.6188V9.75C22 8.88805 21.7103 8.0614 21.1945 7.4519C20.6788 6.84241 19.9793 6.5 19.25 6.5H2.75ZM11 17.3333C11.8146 17.3334 12.606 17.013 13.2494 16.4225C13.8927 15.8321 14.3514 15.0052 14.553 14.0725C14.6777 13.4918 15.0773 13 15.5833 13H19.25C19.9793 13 20.6788 13.3424 21.1945 13.9519C21.7103 14.5614 22 15.388 22 16.25V22.75C22 23.612 21.7103 24.4386 21.1945 25.0481C20.6788 25.6576 19.9793 26 19.25 26H2.75C2.02065 26 1.32118 25.6576 0.805456 25.0481C0.289731 24.4386 0 23.612 0 22.75V16.25C0 15.388 0.289731 14.5614 0.805456 13.9519C1.32118 13.3424 2.02065 13 2.75 13H6.41667C6.92267 13 7.32233 13.4918 7.447 14.0725C7.64861 15.0052 8.10728 15.8321 8.75065 16.4225C9.39401 17.013 10.1854 17.3334 11 17.3333Z" fill="#4C47FC"/>
</svg>
