<svg width="35" height="35" viewBox="0 0 35 35" fill="none" xmlns="http://www.w3.org/2000/svg">
<path d="M26.6667 21.6667H6.66667L0 28.3333V1.66667C0 1.22464 0.175595 0.800716 0.488155 0.488155C0.800716 0.175595 1.22464 0 1.66667 0H26.6667C27.1087 0 27.5326 0.175595 27.8452 0.488155C28.1577 0.800716 28.3333 1.22464 28.3333 1.66667V20C28.3333 20.442 28.1577 20.8659 27.8452 21.1785C27.5326 21.4911 27.1087 21.6667 26.6667 21.6667ZM35 11.6667V35L28.3333 28.3333H10C9.55797 28.3333 9.13405 28.1577 8.82149 27.8452C8.50893 27.5326 8.33333 27.1087 8.33333 26.6667V25H31.6667V10H33.3333C33.7754 10 34.1993 10.1756 34.5118 10.4882C34.8244 10.8007 35 11.2246 35 11.6667ZM10.3167 3.33333C8.86667 3.33333 7.7 3.66667 6.8 4.31667C5.93333 5 5.5 5.95 5.51667 7.26667L5.53333 7.31667H8.75C8.76667 6.81667 8.91667 6.43333 9.21667 6.16667C9.52529 5.91074 9.91583 5.77464 10.3167 5.78333C10.8333 5.78333 11.2667 5.95 11.5667 6.25C11.8667 6.56667 12 7 12 7.5C12 8.03333 11.8833 8.48333 11.6167 8.86667C11.3833 9.25 11.0333 9.58333 10.6 9.85C9.75 10.4167 9.16667 10.9167 8.85 11.3667C8.51667 11.8 8.33333 12.5 8.33333 13.3333H11.6667C11.6667 12.8167 11.7333 12.4 11.8833 12.1C12.0333 11.8 12.3167 11.5 12.7333 11.2333C13.4833 10.8333 14.1 10.35 14.5833 9.68333C15.0667 9.01667 15.3167 8.33333 15.3167 7.5C15.3167 6.23333 14.8667 5.21667 13.9667 4.46667C13.0833 3.71667 11.8667 3.33333 10.3167 3.33333ZM8.33333 15V18.3333H11.6667V15H8.33333ZM18.3333 18.3333H21.6667V15H18.3333V18.3333ZM18.3333 3.33333V13.3333H21.6667V3.33333H18.3333Z" fill="#C6C6C6"/>
</svg>
