<svg width="43" height="36" viewBox="0 0 43 36" fill="none" xmlns="http://www.w3.org/2000/svg">
<path fill-rule="evenodd" clip-rule="evenodd" d="M37.6667 0.242077C38.1834 0.0277308 38.7489 -0.0461958 39.3043 0.027991C39.8598 0.102178 40.3849 0.321767 40.8251 0.663901C41.2652 1.00604 41.6043 1.45821 41.807 1.97336C42.0097 2.4885 42.0686 3.04779 41.9776 3.59301L37.2361 31.944C36.7761 34.6788 33.7322 36.2471 31.1879 34.8848C29.0596 33.7452 25.8986 31.9894 23.0553 30.1573C21.6337 29.2402 17.2789 26.3035 17.8141 24.2138C18.274 22.4271 25.5912 15.7128 29.7725 11.721C31.4137 10.1527 30.6652 9.24796 28.7272 10.6905C23.9145 14.2723 16.1876 19.7191 13.6328 21.2524C11.3791 22.6043 10.2042 22.8351 8.79925 22.6043C6.23613 22.1839 3.85908 21.5326 1.91897 20.7392C-0.702688 19.6676 -0.575159 16.1147 1.91688 15.0801L37.6667 0.242077Z" fill="#4C47FC"/>
</svg>
