<svg width="24" height="24" viewBox="0 0 24 24" fill="none" xmlns="http://www.w3.org/2000/svg">
<path d="M5.68421 24C4.17666 24 2.73086 23.4011 1.66487 22.3351C0.59887 21.2691 0 19.8233 0 18.3158C0 16.8082 0.59887 15.3624 1.66487 14.2964C2.73086 13.2304 4.17666 12.6316 5.68421 12.6316C7.19176 12.6316 8.63756 13.2304 9.70355 14.2964C10.7695 15.3624 11.3684 16.8082 11.3684 18.3158C11.3684 19.8233 10.7695 21.2691 9.70355 22.3351C8.63756 23.4011 7.19176 24 5.68421 24ZM18.3158 11.3684C17.5693 11.3684 16.8302 11.2214 16.1405 10.9357C15.4509 10.6501 14.8243 10.2314 14.2964 9.70355C13.7686 9.17573 13.3499 8.5491 13.0643 7.85946C12.7786 7.16982 12.6316 6.43067 12.6316 5.68421C12.6316 4.93775 12.7786 4.1986 13.0643 3.50896C13.3499 2.81932 13.7686 2.19269 14.2964 1.66487C14.8243 1.13704 15.4509 0.718343 16.1405 0.432685C16.8302 0.147027 17.5693 -1.11231e-08 18.3158 0C19.8233 2.24642e-08 21.2691 0.59887 22.3351 1.66487C23.4011 2.73086 24 4.17666 24 5.68421C24 7.19176 23.4011 8.63756 22.3351 9.70355C21.2691 10.7695 19.8233 11.3684 18.3158 11.3684ZM0.631579 6.94737C0.631579 5.27232 1.29699 3.66587 2.48143 2.48143C3.66587 1.29699 5.27232 0.631579 6.94737 0.631579H10.7368V3.15789H6.94737C5.94234 3.15789 4.97847 3.55714 4.26781 4.26781C3.55714 4.97847 3.15789 5.94234 3.15789 6.94737V10.7368H0.631579V6.94737ZM20.8421 13.2632V17.0526C20.8421 18.0577 20.4429 19.0215 19.7322 19.7322C19.0215 20.4429 18.0577 20.8421 17.0526 20.8421H13.2632V23.3684H17.0526C18.7277 23.3684 20.3341 22.703 21.5186 21.5186C22.703 20.3341 23.3684 18.7277 23.3684 17.0526V13.2632H20.8421Z" fill="#4C47FC"/>
</svg>
