<svg width="45" height="47" viewBox="0 0 45 47" fill="none" xmlns="http://www.w3.org/2000/svg">
<path fill-rule="evenodd" clip-rule="evenodd" d="M7.3125 19.9439V15.2892C7.3125 11.2342 8.91261 7.34536 11.7608 4.47809C14.609 1.61082 18.472 0 22.5 0C26.528 0 30.391 1.61082 33.2392 4.47809C36.0874 7.34536 37.6875 11.2342 37.6875 15.2892V19.9439C40.1963 20.1319 41.8275 20.6075 43.0223 21.8103C45 23.799 45 27.004 45 33.4096C45 39.8152 45 43.0203 43.0223 45.009C41.0467 47 37.863 47 31.5 47H13.5C7.137 47 3.95325 47 1.97775 45.009C-1.3411e-07 43.0203 0 39.8152 0 33.4096C0 27.004 -1.3411e-07 23.799 1.97775 21.8103C3.17025 20.6075 4.80375 20.1319 7.3125 19.9439ZM10.6875 15.2892C10.6875 12.1353 11.932 9.11065 14.1473 6.88055C16.3626 4.65045 19.3671 3.39759 22.5 3.39759C25.6329 3.39759 28.6374 4.65045 30.8527 6.88055C33.068 9.11065 34.3125 12.1353 34.3125 15.2892V19.8283C33.4515 19.8208 32.514 19.8178 31.5 19.8193H13.5C12.4845 19.8178 11.547 19.8208 10.6875 19.8283V15.2892Z" fill="#9E9CFF" fill-opacity="0.55"/>
<circle cx="22" cy="35" r="5" fill="white"/>
</svg>
