<svg width="45" height="37" viewBox="0 0 45 37" fill="none" xmlns="http://www.w3.org/2000/svg">
<path d="M40.5 0H4.5C3.30653 0 2.16193 0.487275 1.31802 1.35463C0.474106 2.22199 0 3.39837 0 4.625V32.375C0 33.6016 0.474106 34.778 1.31802 35.6454C2.16193 36.5127 3.30653 37 4.5 37H40.5C41.6935 37 42.8381 36.5127 43.682 35.6454C44.5259 34.778 45 33.6016 45 32.375V4.625C45 3.39837 44.5259 2.22199 43.682 1.35463C42.8381 0.487275 41.6935 0 40.5 0ZM40.5 9.79575L22.5 21.0854L4.5 9.79575V4.625H40.5V9.79575Z" fill="#9E9CFF" fill-opacity="0.55"/>
</svg>
