<svg width="37" height="18" viewBox="0 0 37 18" fill="none" xmlns="http://www.w3.org/2000/svg">
<g clip-path="url(#clip0_102_3968)">
<path d="M0 1.52417H14.7069V8.92071C14.7069 10.8168 13.6954 12.569 12.0534 13.5172L7.35347 16.2311L2.65357 13.5172C1.01152 12.569 1.6856e-06 10.8168 1.6856e-06 8.92071L0 1.52417Z" fill="#FFDD2D"/>
<path fill-rule="evenodd" clip-rule="evenodd" d="M4.05615 5.58032V7.8921C4.36876 7.53508 4.93712 7.29348 5.58699 7.29348H6.29318V9.98089C6.29318 10.6959 6.10107 11.3217 5.81606 11.6659H8.88794C8.60348 11.3214 8.41184 10.6964 8.41184 9.98226V7.29348H9.11807C9.76792 7.29348 10.3363 7.53508 10.6489 7.8921V5.58032H4.05615Z" fill="#333333"/>
</g>
<path d="M23.0919 4.25515V12.0427H20.4366V4.25515H23.0919ZM24.4355 4.22168H30.0809C30.8731 4.22168 31.5983 4.26631 32.2342 4.36672C32.8813 4.46713 33.4169 4.60102 33.8408 4.79069C34.2759 4.98035 34.6441 5.18118 34.9454 5.41548C35.2466 5.63862 35.4809 5.89523 35.6483 6.18531C35.8045 6.47539 35.9272 6.75431 35.9941 7.03324C36.0722 7.31216 36.1057 7.60224 36.1057 7.91464V8.23819C36.1057 8.60637 36.0611 8.95224 35.9607 9.27579C35.8714 9.6105 35.6929 9.94521 35.4251 10.2911C35.1462 10.6481 34.8003 10.9493 34.3764 11.1948C33.9412 11.4402 33.3611 11.6411 32.6247 11.7973C31.8995 11.9646 31.0516 12.0427 30.0921 12.0427H24.4355V4.22168ZM27.102 6.06258V10.1572H29.8801C32.1673 10.1572 33.3053 9.48778 33.3053 8.13778V8.082C33.3053 6.732 32.1673 6.06258 29.8801 6.06258H27.102Z" fill="black"/>
<defs>
<clipPath id="clip0_102_3968">
<rect width="14.7069" height="17.2426" fill="white"/>
</clipPath>
</defs>
</svg>
