<svg width="33" height="18" viewBox="0 0 33 18" fill="none" xmlns="http://www.w3.org/2000/svg">
<path d="M13.5138 3.49316C13.8702 3.95907 14.1681 4.46953 14.4202 5.01054L7.55251 10.1342L4.66797 8.30115V6.10783L7.53723 7.92563L13.5138 3.49316Z" fill="#21A038"/>
<path d="M1.73887 8.15057C1.73887 8.04491 1.73887 7.9558 1.75415 7.85015L0.0152756 7.75977C0.0152756 7.8807 0 8.01563 0 8.13529C0 10.2395 0.847794 12.1477 2.21496 13.5301L3.44846 12.2826C2.39317 11.2311 1.73887 9.7736 1.73887 8.15057Z" fill="url(#paint0_linear_102_3956)"/>
<path d="M7.53711 2.29019C7.64149 2.29019 7.7306 2.29019 7.83498 2.30547L7.92409 0.547502C7.80443 0.547502 7.67077 0.532227 7.55239 0.532227C5.47109 0.532227 3.58328 1.38893 2.21484 2.77137L3.44835 4.01888C4.48963 2.95213 5.9459 2.29019 7.53711 2.29019Z" fill="url(#paint1_linear_102_3956)"/>
<path d="M7.53737 14.0119C7.43299 14.0119 7.34388 14.0119 7.2395 13.9966L7.15039 15.7546C7.27005 15.7546 7.40371 15.7699 7.5221 15.7699C9.60339 15.7699 11.4925 14.9131 12.8596 13.5307L11.6261 12.2832C10.5849 13.3652 9.14258 14.0119 7.53737 14.0119Z" fill="url(#paint2_linear_102_3956)"/>
<path d="M10.8074 3.31252L12.2789 2.21523C10.9856 1.16376 9.33581 0.51709 7.53711 0.51709V2.27505C8.75661 2.29033 9.88573 2.66585 10.8074 3.31252Z" fill="url(#paint3_linear_102_3956)"/>
<path d="M15.0898 8.15061C15.0898 7.68471 15.0453 7.23408 14.9702 6.78345L13.3497 8.0004C13.3497 8.04496 13.3497 8.10606 13.3497 8.15061C13.3497 9.8793 12.6063 11.4272 11.4326 12.494L12.6063 13.8013C14.1237 12.4189 15.0898 10.3898 15.0898 8.15061Z" fill="#21A038"/>
<path d="M7.53734 14.0115C5.82775 14.0115 4.29637 13.2604 3.24109 12.0728L1.94775 13.2604C3.33019 14.8084 5.32238 15.7694 7.53734 15.7694V14.0115Z" fill="url(#paint4_linear_102_3956)"/>
<path d="M3.65723 3.80807L2.48228 2.50073C0.950905 3.89845 0 5.91228 0 8.15142H1.73887C1.73887 6.43801 2.48228 4.87608 3.65723 3.80807Z" fill="url(#paint5_linear_102_3956)"/>
<path d="M19.7959 13V3.68333H21.3312V13H19.7959ZM23.6146 13V3.68333H26.4753C27.8574 3.68333 29.0166 4.12949 29.9526 5.02179C30.8886 5.91409 31.3567 7.02071 31.3567 8.34167C31.3567 9.66262 30.8886 10.7692 29.9526 11.6615C29.0166 12.5538 27.8574 13 26.4753 13H23.6146ZM25.1499 11.5697H26.4753C27.455 11.5697 28.2511 11.2635 28.8635 10.6512C29.4846 10.0388 29.7951 9.26896 29.7951 8.34167C29.7951 7.41438 29.4846 6.64455 28.8635 6.03218C28.2511 5.41982 27.455 5.11364 26.4753 5.11364H25.1499V11.5697Z" fill="#040404"/>
<defs>
<linearGradient id="paint0_linear_102_3956" x1="2.02953" y1="13.3164" x2="0.243638" y2="8.13073" gradientUnits="userSpaceOnUse">
<stop offset="0.1444" stop-color="#F2E913"/>
<stop offset="0.3037" stop-color="#E7E518"/>
<stop offset="0.5823" stop-color="#CADB26"/>
<stop offset="0.891" stop-color="#A3CD39"/>
</linearGradient>
<linearGradient id="paint1_linear_102_3956" x1="2.71083" y1="2.57292" x2="7.22316" y2="0.845558" gradientUnits="userSpaceOnUse">
<stop offset="0.0592" stop-color="#0FA8E0"/>
<stop offset="0.5385" stop-color="#0099F9"/>
<stop offset="0.9234" stop-color="#0291EB"/>
</linearGradient>
<linearGradient id="paint2_linear_102_3956" x1="7.0488" y1="14.2747" x2="12.4255" y2="13.054" gradientUnits="userSpaceOnUse">
<stop offset="0.1226" stop-color="#A3CD39"/>
<stop offset="0.2846" stop-color="#86C339"/>
<stop offset="0.8693" stop-color="#21A038"/>
</linearGradient>
<linearGradient id="paint3_linear_102_3956" x1="7.17981" y1="1.63722" x2="11.6513" y2="3.02313" gradientUnits="userSpaceOnUse">
<stop offset="0.0566" stop-color="#0291EB"/>
<stop offset="0.79" stop-color="#0C8ACB"/>
</linearGradient>
<linearGradient id="paint4_linear_102_3956" x1="2.38992" y1="13.5385" x2="7.19382" y2="15.3416" gradientUnits="userSpaceOnUse">
<stop offset="0.1324" stop-color="#F2E913"/>
<stop offset="0.2977" stop-color="#EBE716"/>
<stop offset="0.5306" stop-color="#D9E01F"/>
<stop offset="0.8023" stop-color="#BBD62D"/>
<stop offset="0.9829" stop-color="#A3CD39"/>
</linearGradient>
<linearGradient id="paint5_linear_102_3956" x1="1.33278" y1="8.36385" x2="3.26324" y2="3.31927" gradientUnits="userSpaceOnUse">
<stop offset="0.0698" stop-color="#A3CD39"/>
<stop offset="0.2599" stop-color="#81C55F"/>
<stop offset="0.9216" stop-color="#0FA8E0"/>
</linearGradient>
</defs>
</svg>
