<svg width="79" height="18" viewBox="0 0 79 18" fill="none" xmlns="http://www.w3.org/2000/svg">
<g clip-path="url(#clip0_102_3944)">
<path d="M10.4195 0.000244141H7.82438C7.49584 0.000244141 7.22949 0.266587 7.22949 0.595138V5.08264C7.22949 5.41119 7.49584 5.67753 7.82438 5.67753H10.4195C10.748 5.67753 11.0144 5.41119 11.0144 5.08264V0.595138C11.0144 0.266587 10.748 0.000244141 10.4195 0.000244141Z" fill="#E2241C"/>
<path d="M5.42299 9.30655C5.37414 9.45606 5.26809 9.58012 5.12799 9.65167C4.98792 9.72319 4.82519 9.73632 4.67542 9.68817L0.410172 8.30082C0.260657 8.25201 0.136569 8.14592 0.0650511 8.00585C-0.00646652 7.86574 -0.0195929 7.70301 0.0285433 7.55329L0.829966 5.08391C0.878828 4.93384 0.985134 4.80921 1.12564 4.73727C1.26615 4.66532 1.42941 4.65192 1.57975 4.70003L5.84502 6.08738C5.99435 6.13719 6.1181 6.24376 6.18949 6.38409C6.26091 6.52437 6.27426 6.6871 6.22663 6.83717L5.42299 9.30655Z" fill="#E2241C"/>
<path d="M12.811 9.30646C12.8352 9.38075 12.8737 9.44957 12.9245 9.50895C12.9753 9.56832 13.0372 9.61713 13.1069 9.65258C13.1765 9.68799 13.2524 9.70939 13.3303 9.71548C13.4082 9.72157 13.4865 9.71226 13.5608 9.68807L17.8261 8.30077C17.9756 8.25192 18.0996 8.14587 18.1712 8.00576C18.2427 7.86565 18.2558 7.70296 18.2077 7.5532L17.404 5.08386C17.3556 4.93392 17.2498 4.80929 17.1096 4.73735C16.9695 4.66536 16.8065 4.65192 16.6565 4.69998L12.3912 6.08729C12.2415 6.13662 12.1174 6.24314 12.0459 6.3836C11.9744 6.52402 11.9614 6.68705 12.0096 6.83708L12.811 9.30646Z" fill="#E2241C"/>
<path d="M8.13299 12.7017C8.26018 12.7947 8.34548 12.9342 8.37027 13.0898C8.39507 13.2453 8.3574 13.4044 8.26544 13.5323L5.62546 17.1735C5.53289 17.3006 5.39383 17.3858 5.23862 17.4106C5.08338 17.4354 4.92469 17.3978 4.79711 17.306L2.6959 15.7795C2.56872 15.6865 2.48343 15.547 2.45862 15.3914C2.43382 15.2359 2.4715 15.0768 2.56346 14.9489L5.20343 11.3166C5.29639 11.1893 5.43606 11.1041 5.59179 11.0797C5.74751 11.0553 5.90659 11.0937 6.03404 11.1864L8.13299 12.7017Z" fill="#E2241C"/>
<path d="M10.105 12.7017C9.97729 12.7943 9.89164 12.9339 9.8668 13.0896C9.84196 13.2454 9.87998 13.4046 9.97255 13.5323L12.6103 17.1735C12.7032 17.3007 12.8427 17.386 12.9983 17.4108C13.1539 17.4356 13.3129 17.3979 13.4409 17.306L15.5421 15.7795C15.6693 15.6865 15.7545 15.547 15.7793 15.3914C15.8042 15.2359 15.7665 15.0768 15.6745 14.9489L13.0346 11.3166C12.9416 11.1893 12.8019 11.1041 12.6462 11.0797C12.4904 11.0553 12.3314 11.0937 12.2039 11.1864L10.105 12.7017Z" fill="#E2241C"/>
<path d="M75.3085 2.75684H77.9532C78.0311 2.75665 78.1076 2.77886 78.1737 2.82083C78.2394 2.8628 78.2921 2.92276 78.3247 2.99364C78.3577 3.06451 78.3695 3.14331 78.359 3.2207C78.3482 3.29809 78.316 3.37084 78.2651 3.43031L74.0605 8.41842C73.9983 8.49215 73.9639 8.58563 73.9639 8.68219C73.9639 8.77876 73.9983 8.8722 74.0605 8.94597L78.3034 13.97C78.3529 14.0298 78.3847 14.1024 78.3947 14.1794C78.4047 14.2565 78.393 14.3349 78.3603 14.4054C78.3277 14.4759 78.2755 14.5357 78.2103 14.5778C78.145 14.62 78.0689 14.6427 77.9915 14.6434H75.3424C75.2819 14.6434 75.2219 14.6299 75.1671 14.6039C75.1123 14.5779 75.064 14.54 75.0257 14.4931L70.4888 8.94149C70.4296 8.86802 70.3975 8.77654 70.3975 8.68219C70.3975 8.58784 70.4296 8.49637 70.4888 8.4229L74.9901 2.89602C75.0288 2.84911 75.0775 2.81131 75.1327 2.78532C75.1875 2.75932 75.2476 2.74577 75.3085 2.74561" fill="#E2241C"/>
<path d="M66.8748 14.657H68.9918C69.0454 14.6573 69.0989 14.6469 69.1484 14.6265C69.198 14.606 69.2433 14.576 69.2811 14.538C69.3194 14.5 69.3494 14.4548 69.3699 14.4051C69.3903 14.3554 69.4007 14.3022 69.4003 14.2484V3.16321C69.4003 3.10955 69.3899 3.05643 69.369 3.00686C69.3485 2.95729 69.3185 2.91225 69.2807 2.87431C69.2428 2.83637 69.1976 2.80627 69.148 2.78574C69.0984 2.76521 69.0454 2.75464 68.9918 2.75464H66.8748C66.7664 2.75523 66.6629 2.79846 66.5864 2.87495C66.5098 2.95144 66.4667 3.05503 66.4663 3.16321V14.2574C66.4663 14.3658 66.5094 14.4697 66.5859 14.5463C66.6625 14.6229 66.7664 14.6659 66.8748 14.6659" fill="#E2241C"/>
<path d="M33.4977 14.5144H31.3561C31.2508 14.5121 31.1505 14.4693 31.0761 14.3948C31.0016 14.3204 30.9588 14.2201 30.9565 14.1148V10.4579C30.9565 10.3501 30.9137 10.2468 30.8375 10.1706C30.7613 10.0944 30.6579 10.0516 30.5502 10.0516H26.5094C26.4016 10.0516 26.2983 10.0944 26.2221 10.1706C26.1459 10.2468 26.1031 10.3501 26.1031 10.4579V14.1148C26.1031 14.2232 26.06 14.3271 25.9834 14.4037C25.9068 14.4804 25.8029 14.5234 25.6945 14.5234H23.5484C23.4949 14.5234 23.4418 14.5128 23.3924 14.4922C23.3429 14.4717 23.298 14.4416 23.2603 14.4036C23.2225 14.3656 23.1926 14.3205 23.1724 14.271C23.1521 14.2215 23.1418 14.1684 23.1421 14.1148V3.02063C23.1421 2.91266 23.1848 2.80907 23.2609 2.73251C23.3371 2.65596 23.4405 2.61265 23.5484 2.61206H25.6923C25.8004 2.61265 25.904 2.65588 25.9805 2.73237C26.057 2.80887 26.1002 2.91245 26.1008 3.02063V6.98282C26.1005 7.03637 26.1108 7.08948 26.1311 7.13902C26.1514 7.18857 26.1813 7.23363 26.219 7.27161C26.2568 7.30958 26.3017 7.33968 26.3511 7.36026C26.4006 7.38083 26.4536 7.3914 26.5072 7.3914H30.5479C30.6015 7.3914 30.6545 7.38083 30.704 7.36026C30.7534 7.33968 30.7983 7.30958 30.836 7.27161C30.8738 7.23363 30.9037 7.18857 30.924 7.13902C30.9443 7.08948 30.9546 7.03637 30.9543 6.98282V3.02063C30.9549 2.91245 30.9981 2.80887 31.0746 2.73237C31.151 2.65588 31.2547 2.61265 31.3628 2.61206H33.5044C33.6124 2.61265 33.7157 2.65596 33.7919 2.73251C33.868 2.80907 33.9108 2.91266 33.9107 3.02063V14.1148C33.911 14.1684 33.9008 14.2215 33.8805 14.271C33.8602 14.3205 33.8303 14.3656 33.7926 14.4036C33.7548 14.4416 33.7099 14.4717 33.6605 14.4922C33.611 14.5128 33.558 14.5234 33.5044 14.5234" fill="#E2241C"/>
<path d="M37.3159 8.703C37.3159 5.00343 40.1175 2.50488 43.8016 2.50488C46.4594 2.50488 47.9792 3.88774 48.8209 5.33794C48.8483 5.3867 48.8657 5.44059 48.8714 5.49632C48.877 5.55199 48.8714 5.60828 48.854 5.66161C48.837 5.71498 48.8092 5.76418 48.7722 5.8062C48.7352 5.84826 48.69 5.88219 48.6391 5.90586L46.7264 6.80385C46.6351 6.84647 46.5316 6.85374 46.4354 6.82433C46.3393 6.79488 46.2571 6.73077 46.2058 6.64442C45.9578 6.22392 45.6072 5.87345 45.1866 5.62603C44.766 5.37856 44.2892 5.24233 43.8016 5.23015C41.8416 5.23015 40.4587 6.73873 40.4587 8.69626C40.4587 10.6538 41.8416 12.1646 43.8016 12.1646C44.2892 12.152 44.7664 12.0153 45.187 11.7675C45.6077 11.5197 45.9583 11.1689 46.2058 10.7481C46.2571 10.6614 46.3389 10.5971 46.4354 10.568C46.532 10.5389 46.6355 10.547 46.7264 10.5909L48.6391 11.4889C48.69 11.5126 48.7352 11.5465 48.7722 11.5885C48.8092 11.6306 48.837 11.6798 48.854 11.7331C48.8714 11.7865 48.877 11.8427 48.8714 11.8985C48.8657 11.9541 48.8483 12.0081 48.8209 12.0568C47.9879 13.4801 46.455 14.8876 43.8016 14.8876C40.1175 14.8876 37.3159 12.3734 37.3159 8.68952" fill="#E2241C"/>
<path d="M62.5747 14.6547H60.4332C60.3249 14.6547 60.221 14.6117 60.1444 14.5351C60.0679 14.4585 60.0248 14.3545 60.0248 14.2462V5.82113C60.0248 5.71338 59.9817 5.61003 59.9056 5.53382C59.8295 5.45765 59.726 5.4148 59.6185 5.4148H55.5775C55.47 5.4148 55.3665 5.45765 55.2904 5.53382C55.2143 5.61003 55.1712 5.71338 55.1712 5.82113V14.2551C55.1716 14.3089 55.1612 14.3622 55.1407 14.4119C55.1203 14.4615 55.0903 14.5067 55.0524 14.5447C55.0142 14.5827 54.9689 14.6128 54.9193 14.6332C54.8697 14.6536 54.8162 14.664 54.7627 14.6637H52.6187C52.5652 14.6637 52.5121 14.6531 52.463 14.6326C52.4134 14.612 52.3686 14.5819 52.3307 14.5439C52.2929 14.506 52.2629 14.4609 52.2429 14.4114C52.2224 14.3618 52.2124 14.3087 52.2124 14.2551V3.16097C52.2124 3.0532 52.2555 2.94984 52.3316 2.87364C52.4077 2.79744 52.5112 2.75464 52.6187 2.75464H62.5682C62.6217 2.75435 62.6747 2.76464 62.7243 2.78492C62.7739 2.80521 62.8187 2.83509 62.857 2.87285C62.8948 2.91061 62.9248 2.9555 62.9457 3.00495C62.9662 3.05439 62.9766 3.10742 62.9766 3.16097V14.2551C62.977 14.3089 62.9666 14.3622 62.9462 14.4119C62.9257 14.4615 62.8957 14.5067 62.8579 14.5447C62.8196 14.5827 62.7743 14.6128 62.7248 14.6332C62.6752 14.6536 62.6217 14.664 62.5682 14.6637" fill="#E2241C"/>
</g>
<defs>
<clipPath id="clip0_102_3944">
<rect width="78.7328" height="17.8345" fill="white"/>
</clipPath>
</defs>
</svg>
