<svg width="47" height="19" viewBox="0 0 47 19" fill="none" xmlns="http://www.w3.org/2000/svg">
<path d="M46.7831 5.4051V13.6404H43.8424V7.8635H41.011V13.6404H38.0703V5.40454H46.7831V5.4051Z" fill="black"/>
<path fill-rule="evenodd" clip-rule="evenodd" d="M32.0315 13.9348C34.6639 13.9348 36.6187 12.3207 36.6187 9.87385C36.6187 7.50556 35.1765 5.96787 32.7661 5.96787C31.6536 5.96787 30.7357 6.35945 30.0444 7.0351C30.2094 5.63861 31.3903 4.61909 32.6906 4.61909C32.9906 4.61909 35.2497 4.61432 35.2497 4.61432L36.5272 2.16968C36.5272 2.16968 33.691 2.23424 32.3725 2.23424C29.36 2.28673 27.3252 5.02499 27.3252 8.35076C27.3252 12.2253 29.3098 13.9348 32.0315 13.9348ZM32.0475 8.13321C33.0249 8.13321 33.7025 8.77546 33.7025 9.87357C33.7025 10.8619 33.1004 11.6762 32.0475 11.6785C31.0403 11.6785 30.3627 10.924 30.3627 9.89041C30.3627 8.79202 31.0403 8.13321 32.0475 8.13321Z" fill="black"/>
<path d="M24.9315 10.8829C24.9315 10.8829 24.237 11.2832 23.1998 11.359C22.0074 11.3943 20.9449 10.6412 20.9449 9.30311C20.9449 7.99784 21.8825 7.24976 23.1698 7.24976C23.9591 7.24976 25.0034 7.79685 25.0034 7.79685C25.0034 7.79685 25.7674 6.39474 26.1632 5.69355C25.4384 5.14421 24.4731 4.84302 23.3503 4.84302C20.5166 4.84302 18.3218 6.6906 18.3218 9.28655C18.3218 11.9156 20.3847 13.7202 23.3503 13.6658C24.1792 13.6349 25.3228 13.3438 26.0198 12.8961L24.9315 10.8829Z" fill="black"/>
<path d="M0 3.99536L2.22237 7.9677V10.3907L0.0025998 14.3552L0 3.99536Z" fill="#5B57A2"/>
<path d="M8.53271 6.52105L10.6152 5.2447L14.877 5.24072L8.53271 9.12727V6.52105Z" fill="#D90751"/>
<path d="M8.52146 3.97111L8.53323 9.23035L6.30566 7.86163V0L8.52146 3.97111Z" fill="#FAB718"/>
<path d="M14.8775 5.24104L10.6155 5.24501L8.52146 3.97111L6.30566 0L14.8775 5.24104Z" fill="#ED6F26"/>
<path d="M8.53323 14.3768V11.8251L6.30566 10.4824L6.30689 18.3519L8.53323 14.3768Z" fill="#63B22F"/>
<path d="M10.6102 13.1125L2.22221 7.9677L0 3.99536L14.8682 13.1073L10.6102 13.1125Z" fill="#1487C9"/>
<path d="M6.30664 18.3512L8.53268 14.3761L10.6099 13.1114L14.8679 13.1062L6.30664 18.3512Z" fill="#017F36"/>
<path d="M0.00244141 14.3545L6.32346 10.4823L4.19836 9.17847L2.22221 10.39L0.00244141 14.3545Z" fill="#984995"/>
</svg>
