<svg width="23" height="25" viewBox="0 0 23 25" fill="none" xmlns="http://www.w3.org/2000/svg">
<path d="M17.4637 13.1081C18.4515 13.1082 19.2523 13.9091 19.2523 14.897L19.2523 20.1175C19.2523 21.7255 17.2958 22.517 16.1777 21.3613L11.1269 16.1402C10.0286 15.0049 10.8332 13.1073 12.4128 13.1075L17.4637 13.1081Z" fill="#F6F6F6"/>
<path d="M4.70919 21.8763C3.72131 21.8761 2.92055 21.0753 2.92055 20.0874L2.92055 14.8669C2.92055 13.2589 4.87705 12.4674 5.99511 13.6231L11.046 18.8442C12.1442 19.9795 11.3396 21.8771 9.76008 21.8769L4.70919 21.8763Z" fill="#F6F6F6"/>
<path d="M4.70919 2.8425C3.72131 2.84261 2.92055 3.64348 2.92055 4.63136L2.92055 9.85185C2.92055 11.4599 4.87705 12.2514 5.99511 11.0956L11.046 5.87453C12.1442 4.73927 11.3396 2.8417 9.76008 2.84189L4.70919 2.8425Z" fill="#F6F6F6"/>
</svg>
