<svg width="252" height="28" viewBox="0 0 252 28" fill="none" xmlns="http://www.w3.org/2000/svg">
<rect width="60.9999" height="28" rx="5" fill="white"/>
<path d="M51 10.6951V17.9123H48.4229V12.8496H45.9414V17.9123H43.3643V10.6946H51V10.6951Z" fill="black"/>
<path fill-rule="evenodd" clip-rule="evenodd" d="M38.0716 18.1703C40.3786 18.1703 42.0918 16.7558 42.0918 14.6114C42.0918 12.5359 40.8278 11.1883 38.7154 11.1883C37.7404 11.1883 36.936 11.5315 36.3301 12.1236C36.4748 10.8997 37.5097 10.0062 38.6492 10.0062C38.9122 10.0062 40.892 10.0021 40.892 10.0021L42.0116 7.85962C42.0116 7.85962 39.5259 7.9162 38.3705 7.9162C35.7304 7.9622 33.9471 10.362 33.9471 13.2766C33.9471 16.6722 35.6863 18.1703 38.0716 18.1703ZM38.0856 13.086C38.9422 13.086 39.536 13.6488 39.536 14.6112C39.536 15.4773 39.0083 16.191 38.0856 16.193C37.2029 16.193 36.6091 15.5317 36.6091 14.6259C36.6091 13.6633 37.2029 13.086 38.0856 13.086Z" fill="black"/>
<path d="M31.8494 15.4959C31.8494 15.4959 31.2408 15.8467 30.3318 15.9131C29.2868 15.9441 28.3557 15.2841 28.3557 14.1114C28.3557 12.9675 29.1773 12.3119 30.3055 12.3119C30.9973 12.3119 31.9124 12.7913 31.9124 12.7913C31.9124 12.7913 32.582 11.5625 32.9289 10.948C32.2937 10.4666 31.4477 10.2026 30.4637 10.2026C27.9803 10.2026 26.0568 11.8218 26.0568 14.0969C26.0568 16.4009 27.8647 17.9825 30.4637 17.9348C31.1901 17.9077 32.1924 17.6526 32.8032 17.2602L31.8494 15.4959Z" fill="black"/>
<path d="M10 9.45923L11.9476 12.9405V15.064L10.0023 18.5384L10 9.45923Z" fill="#5B57A2"/>
<path d="M17.4781 11.6738L19.3032 10.5552L23.0381 10.5518L17.4781 13.9579V11.6738Z" fill="#D90751"/>
<path d="M17.4678 9.43871L17.4782 14.0478L15.526 12.8483V5.9585L17.4678 9.43871Z" fill="#FAB718"/>
<path d="M23.0382 10.5516L19.303 10.5551L17.4678 9.43871L15.526 5.9585L23.0382 10.5516Z" fill="#ED6F26"/>
<path d="M17.4782 18.5577V16.3215L15.526 15.1448L15.527 22.0414L17.4782 18.5577Z" fill="#63B22F"/>
<path d="M19.2986 17.4494L11.9475 12.9405L10 9.45923L23.0303 17.4448L19.2986 17.4494Z" fill="#1487C9"/>
<path d="M15.5272 22.0415L17.478 18.5578L19.2985 17.4494L23.0301 17.4448L15.5272 22.0415Z" fill="#017F36"/>
<path d="M10.0023 18.5384L15.5419 15.1449L13.6795 14.0022L11.9477 15.0639L10.0023 18.5384Z" fill="#984995"/>
<rect x="62.9922" width="89" height="28" rx="5" fill="white"/>
<g clip-path="url(#clip0_40_3094)">
<path d="M82.1238 6.18506H79.8495C79.5615 6.18506 79.3281 6.41848 79.3281 6.70641V10.6392C79.3281 10.9271 79.5615 11.1605 79.8495 11.1605H82.1238C82.4117 11.1605 82.6451 10.9271 82.6451 10.6392V6.70641C82.6451 6.41848 82.4117 6.18506 82.1238 6.18506Z" fill="#E2241C"/>
<path d="M77.7448 14.3408C77.702 14.4718 77.6091 14.5805 77.4863 14.6432C77.3635 14.7059 77.2209 14.7174 77.0896 14.6752L73.3517 13.4594C73.2206 13.4166 73.1119 13.3236 73.0492 13.2009C72.9865 13.0781 72.975 12.9355 73.0172 12.8042L73.7196 10.6401C73.7624 10.5086 73.8555 10.3994 73.9787 10.3363C74.1018 10.2733 74.2449 10.2615 74.3767 10.3037L78.1147 11.5195C78.2455 11.5632 78.354 11.6566 78.4165 11.7796C78.4791 11.9025 78.4908 12.0451 78.4491 12.1766L77.7448 14.3408Z" fill="#E2241C"/>
<path d="M84.2196 14.3407C84.2408 14.4058 84.2746 14.4661 84.3191 14.5181C84.3636 14.5702 84.4179 14.613 84.4789 14.644C84.5399 14.6751 84.6065 14.6938 84.6747 14.6991C84.743 14.7045 84.8116 14.6963 84.8767 14.6751L88.6147 13.4593C88.7458 13.4165 88.8545 13.3236 88.9172 13.2008C88.9799 13.078 88.9914 12.9354 88.9492 12.8042L88.2449 10.6401C88.2025 10.5087 88.1097 10.3995 87.9868 10.3364C87.8641 10.2733 87.7212 10.2615 87.5897 10.3037L83.8517 11.5195C83.7205 11.5627 83.6118 11.6561 83.5491 11.7791C83.4865 11.9022 83.475 12.0451 83.5173 12.1766L84.2196 14.3407Z" fill="#E2241C"/>
<path d="M80.1201 17.316C80.2315 17.3975 80.3063 17.5197 80.328 17.6561C80.3497 17.7924 80.3167 17.9318 80.2361 18.0439L77.9225 21.235C77.8414 21.3464 77.7195 21.421 77.5835 21.4428C77.4474 21.4645 77.3084 21.4316 77.1966 21.3511L75.3551 20.0133C75.2436 19.9318 75.1689 19.8096 75.1472 19.6732C75.1254 19.5369 75.1584 19.3975 75.239 19.2853L77.5527 16.1021C77.6341 15.9905 77.7565 15.9159 77.893 15.8945C78.0295 15.8731 78.1689 15.9067 78.2806 15.988L80.1201 17.316Z" fill="#E2241C"/>
<path d="M81.8481 17.316C81.7362 17.3971 81.6611 17.5194 81.6393 17.6559C81.6176 17.7924 81.6509 17.932 81.732 18.0439L84.0436 21.235C84.1251 21.3465 84.2474 21.4212 84.3837 21.443C84.5201 21.4647 84.6595 21.4317 84.7716 21.3511L86.613 20.0133C86.7245 19.9318 86.7992 19.8096 86.821 19.6732C86.8427 19.5369 86.8097 19.3975 86.7291 19.2853L84.4155 16.1021C84.334 15.9905 84.2116 15.9159 84.0751 15.8945C83.9386 15.8731 83.7992 15.9067 83.6876 15.988L81.8481 17.316Z" fill="#E2241C"/>
<path d="M138.991 8.60116H141.309C141.377 8.60099 141.445 8.62045 141.502 8.65723C141.56 8.69402 141.606 8.74657 141.635 8.80868C141.664 8.87079 141.674 8.93985 141.665 9.00767C141.655 9.07549 141.627 9.13925 141.583 9.19137L137.898 13.5629C137.843 13.6275 137.813 13.7094 137.813 13.794C137.813 13.8787 137.843 13.9605 137.898 14.0252L141.616 18.4282C141.66 18.4805 141.687 18.5442 141.696 18.6117C141.705 18.6793 141.695 18.7479 141.666 18.8097C141.637 18.8715 141.592 18.9239 141.535 18.9609C141.477 18.9978 141.411 19.0177 141.343 19.0184H139.021C138.968 19.0184 138.916 19.0065 138.868 18.9837C138.819 18.9609 138.777 18.9277 138.744 18.8866L134.768 14.0213C134.716 13.9569 134.688 13.8767 134.688 13.794C134.688 13.7113 134.716 13.6312 134.768 13.5668L138.712 8.72313C138.746 8.68202 138.789 8.64889 138.837 8.62611C138.885 8.60333 138.938 8.59145 138.991 8.59131" fill="#E2241C"/>
<path d="M131.6 19.0301H133.456C133.502 19.0304 133.549 19.0213 133.593 19.0034C133.636 18.9855 133.676 18.9591 133.709 18.9258C133.743 18.8925 133.769 18.8529 133.787 18.8094C133.805 18.7658 133.814 18.7192 133.813 18.672V8.95719C133.813 8.91016 133.804 8.8636 133.786 8.82016C133.768 8.77672 133.742 8.73725 133.709 8.704C133.675 8.67075 133.636 8.64437 133.592 8.62638C133.549 8.60838 133.502 8.59912 133.456 8.59912H131.6C131.505 8.59964 131.414 8.63752 131.347 8.70456C131.28 8.7716 131.243 8.86238 131.242 8.95719V18.6799C131.242 18.7749 131.28 18.866 131.347 18.9331C131.414 19.0003 131.505 19.038 131.6 19.038" fill="#E2241C"/>
<path d="M102.349 18.9051H100.472C100.38 18.9031 100.292 18.8656 100.227 18.8003C100.161 18.7351 100.124 18.6472 100.122 18.5549V15.3501C100.122 15.2556 100.084 15.1651 100.018 15.0983C99.9508 15.0315 99.8602 14.994 99.7658 14.994H96.2245C96.13 14.994 96.0395 15.0315 95.9727 15.0983C95.9059 15.1651 95.8684 15.2556 95.8684 15.3501V18.5549C95.8684 18.6499 95.8307 18.741 95.7635 18.8081C95.6964 18.8753 95.6053 18.913 95.5103 18.913H93.6295C93.5826 18.913 93.5361 18.9037 93.4928 18.8857C93.4495 18.8677 93.4101 18.8413 93.377 18.808C93.3439 18.7747 93.3177 18.7352 93.3 18.6918C93.2822 18.6484 93.2732 18.6019 93.2734 18.5549V8.83219C93.2734 8.73756 93.3109 8.64678 93.3776 8.57968C93.4443 8.51259 93.5349 8.47464 93.6295 8.47412H95.5084C95.6032 8.47464 95.6939 8.51252 95.761 8.57956C95.828 8.6466 95.8659 8.73738 95.8664 8.83219V12.3046C95.8662 12.3515 95.8752 12.398 95.893 12.4415C95.9107 12.4849 95.9369 12.5244 95.97 12.5577C96.0031 12.5909 96.0425 12.6173 96.0858 12.6354C96.1291 12.6534 96.1756 12.6627 96.2225 12.6627H99.7638C99.8107 12.6627 99.8572 12.6534 99.9005 12.6354C99.9438 12.6173 99.9832 12.5909 100.016 12.5577C100.049 12.5244 100.076 12.4849 100.093 12.4415C100.111 12.398 100.12 12.3515 100.12 12.3046V8.83219C100.12 8.73738 100.158 8.6466 100.225 8.57956C100.292 8.51252 100.383 8.47464 100.478 8.47412H102.355C102.449 8.47464 102.54 8.51259 102.607 8.57968C102.673 8.64678 102.711 8.73756 102.711 8.83219V18.5549C102.711 18.6019 102.702 18.6484 102.684 18.6918C102.667 18.7352 102.64 18.7747 102.607 18.808C102.574 18.8413 102.535 18.8677 102.492 18.8857C102.448 18.9037 102.402 18.913 102.355 18.913" fill="#E2241C"/>
<path d="M105.695 13.8123C105.695 10.5701 108.151 8.38037 111.379 8.38037C113.708 8.38037 115.04 9.59228 115.778 10.8632C115.802 10.9059 115.817 10.9532 115.822 11.002C115.827 11.0508 115.822 11.1001 115.807 11.1469C115.792 11.1936 115.768 11.2368 115.735 11.2736C115.703 11.3105 115.663 11.3402 115.619 11.3609L113.943 12.1479C113.862 12.1853 113.772 12.1916 113.687 12.1659C113.603 12.1401 113.531 12.0839 113.486 12.0082C113.269 11.6397 112.962 11.3325 112.593 11.1157C112.224 10.8988 111.807 10.7794 111.379 10.7687C109.662 10.7687 108.45 12.0908 108.45 13.8064C108.45 15.5219 109.662 16.846 111.379 16.846C111.807 16.8349 112.225 16.7152 112.593 16.498C112.962 16.2808 113.269 15.9733 113.486 15.6046C113.531 15.5286 113.603 15.4722 113.687 15.4467C113.772 15.4212 113.863 15.4284 113.943 15.4668L115.619 16.2538C115.663 16.2746 115.703 16.3043 115.735 16.3411C115.768 16.378 115.792 16.4211 115.807 16.4678C115.822 16.5146 115.827 16.5639 115.822 16.6127C115.817 16.6615 115.802 16.7088 115.778 16.7515C115.048 17.9988 113.705 19.2324 111.379 19.2324C108.151 19.2324 105.695 17.0289 105.695 13.8005" fill="#E2241C"/>
<path d="M127.831 19.0281H125.955C125.86 19.0281 125.769 18.9904 125.701 18.9233C125.634 18.8561 125.597 18.7651 125.597 18.6701V11.2865C125.597 11.1921 125.559 11.1015 125.492 11.0347C125.425 10.968 125.335 10.9304 125.241 10.9304H121.699C121.605 10.9304 121.514 10.968 121.447 11.0347C121.381 11.1015 121.343 11.1921 121.343 11.2865V18.678C121.343 18.725 121.334 18.7717 121.316 18.8153C121.298 18.8588 121.272 18.8984 121.239 18.9317C121.205 18.9651 121.166 18.9914 121.122 19.0093C121.079 19.0272 121.032 19.0363 120.985 19.036H119.106C119.059 19.036 119.013 19.0267 118.97 19.0087C118.926 18.9907 118.887 18.9643 118.854 18.931C118.821 18.8978 118.794 18.8583 118.777 18.8149C118.759 18.7714 118.75 18.7249 118.75 18.678V8.95522C118.75 8.86078 118.788 8.77019 118.854 8.70341C118.921 8.63663 119.012 8.59913 119.106 8.59913H127.826C127.872 8.59887 127.919 8.60788 127.962 8.62566C128.006 8.64344 128.045 8.66962 128.079 8.70272C128.112 8.73581 128.138 8.77515 128.156 8.81849C128.174 8.86182 128.184 8.90829 128.184 8.95522V18.678C128.184 18.725 128.175 18.7717 128.157 18.8153C128.139 18.8588 128.113 18.8984 128.079 18.9317C128.046 18.9651 128.006 18.9914 127.963 19.0093C127.919 19.0272 127.872 19.0363 127.826 19.036" fill="#E2241C"/>
</g>
<rect x="153.992" width="48" height="28" rx="5" fill="white"/>
<path d="M175.661 9.56152C175.974 9.96983 176.235 10.4172 176.456 10.8913L170.437 15.3816L167.909 13.7752V11.853L170.423 13.4461L175.661 9.56152Z" fill="#21A038"/>
<path d="M165.342 13.6435C165.342 13.5509 165.342 13.4728 165.355 13.3802L163.831 13.301C163.831 13.407 163.818 13.5253 163.818 13.6301C163.818 15.4742 164.561 17.1465 165.759 18.3581L166.84 17.2648C165.915 16.3433 165.342 15.0659 165.342 13.6435Z" fill="url(#paint0_linear_40_3094)"/>
<path d="M170.423 8.50745C170.515 8.50745 170.593 8.50745 170.685 8.52083L170.763 6.98018C170.658 6.98018 170.541 6.9668 170.437 6.9668C168.613 6.9668 166.958 7.7176 165.759 8.92914L166.84 10.0224C167.753 9.08756 169.029 8.50745 170.423 8.50745Z" fill="url(#paint1_linear_40_3094)"/>
<path d="M170.423 18.7799C170.332 18.7799 170.254 18.7799 170.162 18.7665L170.084 20.3071C170.189 20.3071 170.306 20.3205 170.41 20.3205C172.234 20.3205 173.89 19.5697 175.088 18.3582L174.007 17.2649C173.094 18.2132 171.83 18.7799 170.423 18.7799Z" fill="url(#paint2_linear_40_3094)"/>
<path d="M173.289 9.40323L174.579 8.44158C173.446 7.5201 172 6.95337 170.423 6.95337V8.49402C171.492 8.5074 172.482 8.83651 173.289 9.40323Z" fill="url(#paint3_linear_40_3094)"/>
<path d="M177.042 13.6437C177.042 13.2354 177.003 12.8405 176.937 12.4456L175.517 13.5121C175.517 13.5511 175.517 13.6047 175.517 13.6437C175.517 15.1587 174.866 16.5153 173.837 17.4502L174.866 18.5959C176.196 17.3843 177.042 15.6061 177.042 13.6437Z" fill="#21A038"/>
<path d="M170.423 18.7799C168.925 18.7799 167.583 18.1217 166.658 17.0808L165.525 18.1217C166.736 19.4782 168.482 20.3205 170.423 20.3205V18.7799Z" fill="url(#paint4_linear_40_3094)"/>
<path d="M167.023 9.83713L165.993 8.69141C164.651 9.91634 163.818 11.6812 163.818 13.6436H165.342C165.342 12.142 165.993 10.7731 167.023 9.83713Z" fill="url(#paint5_linear_40_3094)"/>
<path d="M181.167 18.5V10.335H182.512V18.5H181.167ZM184.514 18.5V10.335H187.021C188.232 10.335 189.248 10.726 190.068 11.508C190.888 12.29 191.298 13.2599 191.298 14.4175C191.298 15.5752 190.888 16.545 190.068 17.327C189.248 18.109 188.232 18.5 187.021 18.5H184.514ZM185.859 17.2465H187.021C187.879 17.2465 188.577 16.9782 189.113 16.4415C189.658 15.9048 189.93 15.2302 189.93 14.4175C189.93 13.6049 189.658 12.9302 189.113 12.3935C188.577 11.8569 187.879 11.5885 187.021 11.5885H185.859V17.2465Z" fill="#040404"/>
<rect x="203.992" width="48" height="28" rx="5" fill="white"/>
<g clip-path="url(#clip1_40_3094)">
<path d="M211.826 7.78027H224.714V14.2625C224.714 15.9242 223.828 17.4598 222.389 18.2907L218.27 20.6692L214.151 18.2907C212.712 17.4598 211.826 15.9242 211.826 14.2625L211.826 7.78027Z" fill="#FFDD2D"/>
<path fill-rule="evenodd" clip-rule="evenodd" d="M215.38 11.335V13.361C215.654 13.0481 216.152 12.8363 216.722 12.8363H217.341V15.1915C217.341 15.8182 217.172 16.3666 216.923 16.6683H219.615C219.365 16.3663 219.197 15.8186 219.197 15.1927V12.8363H219.816C220.386 12.8363 220.884 13.0481 221.158 13.361V11.335H215.38Z" fill="#333333"/>
</g>
<path d="M232.063 10.2862V17.1111H229.736V10.2862H232.063ZM233.24 10.2569H238.188C238.882 10.2569 239.518 10.296 240.075 10.384C240.642 10.472 241.111 10.5893 241.483 10.7555C241.864 10.9218 242.187 11.0978 242.451 11.3031C242.715 11.4986 242.92 11.7235 243.067 11.9778C243.204 12.232 243.311 12.4764 243.37 12.7209C243.439 12.9653 243.468 13.2195 243.468 13.4933V13.7769C243.468 14.0995 243.429 14.4026 243.341 14.6862C243.263 14.9795 243.106 15.2729 242.871 15.576C242.627 15.8889 242.324 16.1529 241.952 16.368C241.571 16.5831 241.063 16.7591 240.417 16.896C239.782 17.0426 239.039 17.1111 238.198 17.1111H233.24V10.2569ZM235.577 11.8702V15.4586H238.012C240.016 15.4586 241.014 14.872 241.014 13.6889V13.64C241.014 12.4569 240.016 11.8702 238.012 11.8702H235.577Z" fill="black"/>
<defs>
<linearGradient id="paint0_linear_40_3094" x1="165.597" y1="18.1707" x2="164.032" y2="13.6261" gradientUnits="userSpaceOnUse">
<stop offset="0.1444" stop-color="#F2E913"/>
<stop offset="0.3037" stop-color="#E7E518"/>
<stop offset="0.5823" stop-color="#CADB26"/>
<stop offset="0.891" stop-color="#A3CD39"/>
</linearGradient>
<linearGradient id="paint1_linear_40_3094" x1="166.194" y1="8.75522" x2="170.148" y2="7.24139" gradientUnits="userSpaceOnUse">
<stop offset="0.0592" stop-color="#0FA8E0"/>
<stop offset="0.5385" stop-color="#0099F9"/>
<stop offset="0.9234" stop-color="#0291EB"/>
</linearGradient>
<linearGradient id="paint2_linear_40_3094" x1="169.995" y1="19.0102" x2="174.707" y2="17.9404" gradientUnits="userSpaceOnUse">
<stop offset="0.1226" stop-color="#A3CD39"/>
<stop offset="0.2846" stop-color="#86C339"/>
<stop offset="0.8693" stop-color="#21A038"/>
</linearGradient>
<linearGradient id="paint3_linear_40_3094" x1="170.11" y1="7.93503" x2="174.029" y2="9.14961" gradientUnits="userSpaceOnUse">
<stop offset="0.0566" stop-color="#0291EB"/>
<stop offset="0.79" stop-color="#0C8ACB"/>
</linearGradient>
<linearGradient id="paint4_linear_40_3094" x1="165.912" y1="18.3654" x2="170.122" y2="19.9456" gradientUnits="userSpaceOnUse">
<stop offset="0.1324" stop-color="#F2E913"/>
<stop offset="0.2977" stop-color="#EBE716"/>
<stop offset="0.5306" stop-color="#D9E01F"/>
<stop offset="0.8023" stop-color="#BBD62D"/>
<stop offset="0.9829" stop-color="#A3CD39"/>
</linearGradient>
<linearGradient id="paint5_linear_40_3094" x1="164.986" y1="13.8297" x2="166.678" y2="9.40876" gradientUnits="userSpaceOnUse">
<stop offset="0.0698" stop-color="#A3CD39"/>
<stop offset="0.2599" stop-color="#81C55F"/>
<stop offset="0.9216" stop-color="#0FA8E0"/>
</linearGradient>
<clipPath id="clip0_40_3094">
<rect width="69" height="15.6298" fill="white" transform="translate(72.9922 6.18506)"/>
</clipPath>
<clipPath id="clip1_40_3094">
<rect width="12.8889" height="15.1111" fill="white" transform="translate(211.826 6.44434)"/>
</clipPath>
</defs>
</svg>
