<svg width="20" height="20" viewBox="0 0 20 20" fill="none" xmlns="http://www.w3.org/2000/svg">
<path d="M3.38518 2.37834C5.15896 0.841329 7.42822 -0.00326481 9.77528 9.48462e-06C15.1742 9.48462e-06 19.5506 4.3764 19.5506 9.77529C19.5506 11.8633 18.8956 13.7988 17.7812 15.3863L14.6629 9.77529H17.5955C17.5956 8.24216 17.1451 6.74281 16.3 5.46366C15.4548 4.18452 14.2523 3.18202 12.842 2.5808C11.4316 1.97959 9.87569 1.80619 8.3676 2.08216C6.85951 2.35813 5.4658 3.0713 4.35978 4.133L3.38518 2.37834ZM16.1654 17.1722C14.3916 18.7093 12.1223 19.5538 9.77528 19.5506C4.37639 19.5506 0 15.1742 0 9.77529C0 7.68729 0.654944 5.75178 1.76933 4.16428L4.88764 9.77529H1.95506C1.95493 11.3084 2.40545 12.8078 3.25061 14.0869C4.09577 15.3661 5.29827 16.3686 6.7086 16.9698C8.11893 17.571 9.67488 17.7444 11.183 17.4684C12.6911 17.1924 14.0848 16.4793 15.1908 15.4176L16.1654 17.1722Z" fill="#B4B4B4"/>
</svg>
